<svg width="36" height="36" viewBox="0 0 36 36" fill="none" xmlns="http://www.w3.org/2000/svg">
<path d="M35.4375 17.4375C35.4357 15.902 35.0159 14.396 34.2232 13.081C33.4304 11.766 32.2946 10.6916 30.9375 9.97315C30.9059 8.48272 30.4195 7.03755 29.5436 5.8313C28.6676 4.62505 27.4438 3.71535 26.0363 3.22411C24.6288 2.73286 23.1048 2.68353 21.6685 3.08273C20.2322 3.48194 18.9522 4.3106 18 5.45768C17.0479 4.3106 15.7679 3.48194 14.3316 3.08273C12.8952 2.68353 11.3712 2.73286 9.96372 3.22411C8.55622 3.71535 7.33248 4.62505 6.4565 5.8313C5.58052 7.03755 5.09413 8.48272 5.06253 9.97315C3.70411 10.6897 2.56701 11.7634 1.77383 13.0785C0.980648 14.3936 0.561462 15.9003 0.561462 17.4361C0.561462 18.9719 0.980648 20.4786 1.77383 21.7937C2.56701 23.1089 3.70411 24.1826 5.06253 24.8991C5.09358 26.3898 5.57956 27.8353 6.45534 29.042C7.33111 30.2487 8.55482 31.1588 9.96244 31.6504C11.3701 32.142 12.8943 32.1916 14.3309 31.7924C15.7675 31.3933 17.0477 30.5646 18 29.4174C18.9523 30.5646 20.2326 31.3933 21.6692 31.7924C23.1057 32.1916 24.63 32.142 26.0376 31.6504C27.4452 31.1588 28.6689 30.2487 29.5447 29.042C30.4205 27.8353 30.9065 26.3898 30.9375 24.8991C32.295 24.1819 33.4314 23.1083 34.2242 21.7935C35.0171 20.4788 35.4366 18.9728 35.4375 17.4375ZM12.375 28.6875C11.5254 28.6874 10.6986 28.4125 10.0181 27.9038C9.3376 27.3951 8.83987 26.68 8.59925 25.8652C8.73987 25.8652 8.86503 25.875 9.00003 25.875H10.125C10.5726 25.875 11.0018 25.6972 11.3183 25.3808C11.6347 25.0643 11.8125 24.6351 11.8125 24.1875C11.8125 23.74 11.6347 23.3107 11.3183 22.9943C11.0018 22.6778 10.5726 22.5 10.125 22.5H9.00003C7.80518 22.5009 6.64855 22.079 5.73475 21.3092C4.82096 20.5394 4.20891 19.4711 4.00688 18.2935C3.80486 17.1159 4.02588 15.9047 4.63084 14.8743C5.23581 13.8439 6.18572 13.0608 7.31253 12.6633C7.64168 12.5469 7.92663 12.3313 8.12812 12.0462C8.32961 11.7611 8.43771 11.4205 8.43753 11.0714V10.125C8.43753 9.08073 8.85237 8.07921 9.5908 7.34079C10.3292 6.60236 11.3307 6.18752 12.375 6.18752C13.4193 6.18752 14.4208 6.60236 15.1593 7.34079C15.8977 8.07921 16.3125 9.08073 16.3125 10.125V18.5878C15.9899 18.3809 15.6513 18.1999 15.3 18.0464C14.8898 17.8674 14.4252 17.8587 14.0085 18.0222C13.5918 18.1857 13.2572 18.508 13.0782 18.9183C12.8991 19.3286 12.8904 19.7931 13.0539 20.2098C13.2174 20.6265 13.5398 20.9612 13.95 21.1402C14.7798 21.5016 15.4596 22.1379 15.8753 22.9419C16.2909 23.7458 16.4168 24.6684 16.2319 25.5544C16.0471 26.4403 15.5626 27.2356 14.8601 27.8062C14.1577 28.3768 13.2801 28.6881 12.375 28.6875ZM27 22.5H25.875C25.4275 22.5 24.9983 22.6778 24.6818 22.9943C24.3653 23.3107 24.1875 23.74 24.1875 24.1875C24.1875 24.6351 24.3653 25.0643 24.6818 25.3808C24.9983 25.6972 25.4275 25.875 25.875 25.875H27C27.1407 25.875 27.2672 25.875 27.4008 25.8652C27.2134 26.5005 26.8687 27.0782 26.3987 27.545C25.9287 28.0117 25.3485 28.3523 24.7119 28.5353C24.0753 28.7182 23.4028 28.7376 22.7567 28.5917C22.1106 28.4457 21.5118 28.1392 21.0156 27.7003C20.5194 27.2615 20.142 26.7046 19.9182 26.0811C19.6945 25.4577 19.6316 24.7879 19.7354 24.1337C19.8393 23.4795 20.1065 22.8621 20.5123 22.3386C20.9181 21.8151 21.4494 21.4024 22.0571 21.1388C22.4673 20.9598 22.7897 20.6251 22.9532 20.2084C23.1167 19.7917 23.108 19.3272 22.9289 18.9169C22.7499 18.5066 22.4153 18.1843 21.9986 18.0208C21.5819 17.8573 21.1173 17.866 20.7071 18.045C20.3558 18.1985 20.0172 18.3795 19.6946 18.5864V10.125C19.6946 9.08073 20.1094 8.07921 20.8478 7.34079C21.5863 6.60236 22.5878 6.18752 23.6321 6.18752C24.6764 6.18752 25.6779 6.60236 26.4163 7.34079C27.1547 8.07921 27.5696 9.08073 27.5696 10.125V11.0714C27.5694 11.4205 27.6775 11.7611 27.879 12.0462C28.0805 12.3313 28.3654 12.5469 28.6946 12.6633C29.8264 13.0572 30.7819 13.8398 31.3909 14.8719C31.9999 15.9041 32.223 17.1188 32.0205 18.3C31.818 19.4812 31.2031 20.5522 30.2851 21.3226C29.367 22.093 28.2055 22.5127 27.0071 22.5071L27 22.5ZM29.25 16.3125C29.25 16.7601 29.0722 17.1893 28.7558 17.5058C28.4393 17.8222 28.0101 18 27.5625 18C26.0707 18 24.6399 17.4074 23.5851 16.3525C22.5302 15.2976 21.9375 13.8669 21.9375 12.375V11.8125C21.9375 11.365 22.1153 10.9357 22.4318 10.6193C22.7483 10.3028 23.1775 10.125 23.625 10.125C24.0726 10.125 24.5018 10.3028 24.8183 10.6193C25.1347 10.9357 25.3125 11.365 25.3125 11.8125V12.375C25.3125 12.9718 25.5496 13.5441 25.9715 13.966C26.3935 14.388 26.9658 14.625 27.5625 14.625C28.0101 14.625 28.4393 14.8028 28.7558 15.1193C29.0722 15.4357 29.25 15.865 29.25 16.3125ZM14.0625 12.375C14.0625 13.8669 13.4699 15.2976 12.415 16.3525C11.3601 17.4074 9.92937 18 8.43753 18C7.98998 18 7.56075 17.8222 7.24429 17.5058C6.92782 17.1893 6.75003 16.7601 6.75003 16.3125C6.75003 15.865 6.92782 15.4357 7.24429 15.1193C7.56075 14.8028 7.98998 14.625 8.43753 14.625C9.03427 14.625 9.60656 14.388 10.0285 13.966C10.4505 13.5441 10.6875 12.9718 10.6875 12.375V11.8125C10.6875 11.365 10.8653 10.9357 11.1818 10.6193C11.4983 10.3028 11.9275 10.125 12.375 10.125C12.8226 10.125 13.2518 10.3028 13.5683 10.6193C13.8847 10.9357 14.0625 11.365 14.0625 11.8125V12.375Z" fill="#B6FFFA"/>
</svg>
