<svg width="51" height="50" viewBox="0 0 51 50" fill="none" xmlns="http://www.w3.org/2000/svg">
<path d="M25.5417 22.9583C30.1889 22.9583 34.1278 22.2486 37.3583 20.8292C40.5903 19.4111 42.2062 17.6896 42.2062 15.6646C42.2062 13.6396 40.5903 11.9181 37.3583 10.5C34.1264 9.08195 30.1875 8.37361 25.5417 8.375C20.8958 8.37639 16.9493 9.08472 13.7021 10.5C10.4549 11.9153 8.83194 13.6375 8.83333 15.6667C8.83472 17.6958 10.4576 19.4167 13.7021 20.8292C16.9465 22.2417 20.8924 22.9507 25.5396 22.9563M25.5 26.1625C27.1903 26.1625 28.9097 26.0278 30.6583 25.7583C32.4069 25.4903 34.05 25.0931 35.5875 24.5667C37.125 24.0403 38.4792 23.3882 39.65 22.6104C40.8208 21.8326 41.6729 20.9333 42.2062 19.9125V26.0813C41.6729 27.1021 40.8208 28.0014 39.65 28.7792C38.4805 29.5583 37.1264 30.2111 35.5875 30.7375C34.05 31.2639 32.4069 31.6611 30.6583 31.9292C28.9097 32.1972 27.1903 32.3313 25.5 32.3313C23.8097 32.3313 22.0903 32.1972 20.3417 31.9292C18.5931 31.6611 16.9562 31.2639 15.4312 30.7375C13.9062 30.2111 12.559 29.5583 11.3896 28.7792C10.2201 28 9.36805 27.1014 8.83333 26.0833V19.9125C9.36666 20.9319 10.2187 21.8313 11.3896 22.6104C12.559 23.3882 13.9062 24.041 15.4312 24.5688C16.9562 25.0938 18.5931 25.491 20.3417 25.7604C22.0903 26.0299 23.8097 26.1639 25.5 26.1625ZM25.5 35.5375C27.1903 35.5375 28.9097 35.4035 30.6583 35.1354C32.4056 34.866 34.0486 34.4681 35.5875 33.9417C37.1264 33.4153 38.4805 32.7632 39.65 31.9854C40.8194 31.2076 41.6715 30.3083 42.2062 29.2875V35.4167C41.6729 36.4375 40.8208 37.3368 39.65 38.1146C38.4805 38.8924 37.1264 39.5451 35.5875 40.0729C34.05 40.5993 32.4069 40.9965 30.6583 41.2646C28.9097 41.5326 27.1903 41.6667 25.5 41.6667C23.8097 41.6667 22.0903 41.5326 20.3417 41.2646C18.5931 40.9965 16.9562 40.5993 15.4312 40.0729C13.9062 39.5465 12.559 38.8938 11.3896 38.1146C10.2201 37.3354 9.36805 36.4361 8.83333 35.4167V29.2875C9.36805 30.3069 10.2201 31.2063 11.3896 31.9854C12.559 32.7646 13.9062 33.4174 15.4312 33.9438C16.9562 34.4701 18.5931 34.8674 20.3417 35.1354C22.0903 35.4035 23.8097 35.5375 25.5 35.5375Z" fill="#687EFF"/>
</svg>
