<svg width="51" height="50" viewBox="0 0 51 50" fill="none" xmlns="http://www.w3.org/2000/svg">
<path d="M42.6875 7.8125H8.3125C7.4837 7.8125 6.68884 8.14174 6.10279 8.72779C5.51674 9.31384 5.1875 10.1087 5.1875 10.9375V39.0625C5.1875 39.8913 5.51674 40.6862 6.10279 41.2722C6.68884 41.8583 7.4837 42.1875 8.3125 42.1875H42.6875C43.5163 42.1875 44.3112 41.8583 44.8972 41.2722C45.4833 40.6862 45.8125 39.8913 45.8125 39.0625V10.9375C45.8125 10.1087 45.4833 9.31384 44.8972 8.72779C44.3112 8.14174 43.5163 7.8125 42.6875 7.8125ZM18.625 28.4375C18.9565 28.6861 19.1757 29.0563 19.2343 29.4665C19.2929 29.8768 19.1861 30.2935 18.9375 30.625C18.6889 30.9565 18.3187 31.1757 17.9085 31.2343C17.4982 31.2929 17.0815 31.1861 16.75 30.9375L10.5 26.25C10.3059 26.1045 10.1484 25.9157 10.04 25.6988C9.93148 25.4818 9.875 25.2426 9.875 25C9.875 24.7574 9.93148 24.5182 10.04 24.3012C10.1484 24.0843 10.3059 23.8955 10.5 23.75L16.75 19.0625C17.0815 18.8139 17.4982 18.7071 17.9085 18.7657C18.3187 18.8243 18.6889 19.0435 18.9375 19.375C19.1861 19.7065 19.2929 20.1232 19.2343 20.5335C19.1757 20.9437 18.9565 21.3139 18.625 21.5625L14.041 25L18.625 28.4375ZM30.127 14.4922L23.877 36.3672C23.8237 36.568 23.7309 36.7561 23.6041 36.9206C23.4772 37.0851 23.3188 37.2227 23.1382 37.3253C22.9576 37.4278 22.7583 37.4934 22.552 37.518C22.3458 37.5426 22.1366 37.5259 21.9369 37.4688C21.7372 37.4116 21.5509 37.3152 21.3889 37.1852C21.2268 37.0552 21.0924 36.8942 20.9933 36.7116C20.8942 36.5291 20.8326 36.3285 20.8119 36.1218C20.7913 35.9151 20.8121 35.7064 20.873 35.5078L27.123 13.6328C27.2432 13.2417 27.5119 12.9133 27.8716 12.7181C28.2312 12.523 28.6531 12.4768 29.0465 12.5893C29.4399 12.7018 29.7734 12.9642 29.9754 13.32C30.1775 13.6758 30.2319 14.0967 30.127 14.4922ZM40.5 26.25L34.25 30.9375C33.9185 31.1861 33.5018 31.2929 33.0915 31.2343C32.6813 31.1757 32.3111 30.9565 32.0625 30.625C31.8139 30.2935 31.7071 29.8768 31.7657 29.4665C31.8243 29.0563 32.0435 28.6861 32.375 28.4375L36.959 25L32.375 21.5625C32.2108 21.4394 32.0726 21.2851 31.968 21.1086C31.8635 20.932 31.7947 20.7366 31.7657 20.5335C31.7367 20.3303 31.748 20.1235 31.7989 19.9247C31.8498 19.7259 31.9394 19.5392 32.0625 19.375C32.1856 19.2108 32.3399 19.0726 32.5164 18.968C32.693 18.8635 32.8884 18.7947 33.0915 18.7657C33.2947 18.7367 33.5015 18.748 33.7003 18.7989C33.8991 18.8498 34.0858 18.9394 34.25 19.0625L40.5 23.75C40.6941 23.8955 40.8516 24.0843 40.96 24.3012C41.0685 24.5182 41.125 24.7574 41.125 25C41.125 25.2426 41.0685 25.4818 40.96 25.6988C40.8516 25.9157 40.6941 26.1045 40.5 26.25Z" fill="#687EFF"/>
</svg>
